<svg version="1.1" xmlns="http://www.w3.org/2000/svg" xmlns:xlink="http://www.w3.org/1999/xlink" width="48" height="48"><defs><linearGradient x1="9.1503" y1="10.14037" x2="77.54035" y2="76.55027" gradientUnits="userSpaceOnUse" id="color-1"><stop offset="0" stop-color="#000000" stop-opacity="0.39"></stop><stop offset="1" stop-color="#000000" stop-opacity="0"></stop></linearGradient><filter id="dropshadow-base"><feColorMatrix type="matrix" values="0 0 0 0 0  0 0 0 0 0  0 0 0 0 0  0 0 0 .8 0"></feColorMatrix> <feOffset dx="0" dy="1"></feOffset> <feGaussianBlur stdDeviation="1"></feGaussianBlur> <feComposite in="SourceGraphic"></feComposite></filter><filter id="dropshadow-banner" x="-10%" y="-10%" width="120%" height="130%"><feColorMatrix type="matrix" values="0 0 0 0 0  0 0 0 0 0  0 0 0 0 0  0 0 0 .4 0"></feColorMatrix> <feOffset dx="0" dy="1"></feOffset> <feGaussianBlur stdDeviation="0.5"></feGaussianBlur> <feComposite in="SourceGraphic"></feComposite></filter></defs><g fill="none" fill-rule="nonzero" stroke="none" stroke-width="none" stroke-linecap="butt" stroke-linejoin="miter" stroke-miterlimit="10" stroke-dasharray="" stroke-dashoffset="0" font-family="none" font-weight="none" font-size="none" text-anchor="none" style="mix-blend-mode: normal"><path d="M2,24c0,-12.15026 9.84974,-22 22,-22c12.15026,0 22,9.84974 22,22c0,12.15026 -9.84974,22 -22,22c-12.15026,0 -22,-9.84974 -22,-22z" id="base 1 9" fill="#6490c4" stroke-width="1"></path><path d="M15.7291,28.91142c-1.12554,-1.12554 -1.55571,-2.15795 -1.59365,-2.25238c-0.02325,-0.05888 -0.03515,-0.12123 -0.03515,-0.18411v-2.76471l-4.80505,-4.80505c-0.09103,-0.09103 -0.14495,-0.21615 -0.14495,-0.3501v-0.49497c0,-0.2732 0.22181,-0.49497 0.49503,-0.49497c0.1366,0 0.26034,0.05544 0.34994,0.14503c0,0 0,0 0,0l0.77489,0.77489l0.14488,0.05995l-1.61977,-1.61977c-0.09103,-0.09103 -0.14495,-0.21615 -0.14495,-0.3501c0,-0.20047 0.12077,-0.38064 0.30593,-0.45739l14.3547,-5.93987c0.12123,-0.05 0.25686,-0.05 0.37815,0l14.35522,5.93981c0.06112,0.02541 0.11525,0.06215 0.16031,0.1072l7.29014,7.29014c0.00349,0.16124 0.00524,0.32291 0.00524,0.48498c0,9.51484 -6.04027,17.61891 -14.49547,20.68685z" fill="url(#color-1)" stroke-width="1"></path><path transform="translate(-11.63928,-11.63928) scale(1.48497,1.48497)" d="M28.32333,31.74761l-0.33332,1.33332c-0.03801,0.15133 -0.17367,0.25234 -0.32301,0.25234c-0.02668,0 -0.05402,-0.00301 -0.08102,-0.01c-0.17867,-0.04469 -0.28766,-0.22535 -0.24266,-0.40434l0.33332,-1.33332c0.04434,-0.17836 0.22531,-0.28769 0.40398,-0.24234c0.17867,0.04469 0.28734,0.22566 0.24269,0.40434zM23.87268,24.6413l-9.66666,-3.99999c-0.12469,-0.05133 -0.20602,-0.17301 -0.20602,-0.30801v-0.33332c0,-0.18398 0.14937,-0.33332 0.33336,-0.33332c0.18398,0 0.33332,0.14934 0.33332,0.33332v0.11066l9.3333,3.86198l3.5387,-1.46465c0.16965,-0.06969 0.36531,0.01031 0.43566,0.18066c0.07031,0.17 -0.01035,0.365 -0.18035,0.43535l-3.66667,1.51734c-0.04066,0.01699 -0.08402,0.02531 -0.12734,0.02531c-0.04332,0 -0.08668,-0.00836 -0.1273,-0.02535zM27.81439,28.52793c-0.74332,0.36734 -2.00867,0.80535 -3.81433,0.80535c-5.16632,0 -6.58499,-3.39831 -6.64299,-3.54265c-0.01566,-0.03965 -0.02367,-0.08164 -0.02367,-0.12398v-2.33332c0,-0.18398 0.14934,-0.33332 0.33332,-0.33332c0.18398,0 0.33332,0.14934 0.33332,0.33332v2.26398c0.19203,0.41734 1.52769,2.92468 5.66667,3.05667v-2.98734c0,-0.18398 0.14934,-0.33332 0.33332,-0.33332c0.18398,0 0.33332,0.14934 0.33332,0.33332v2.99035c1.49531,-0.04969 2.55265,-0.41367 3.18566,-0.72668c0.16566,-0.08168 0.365,-0.01367 0.44633,0.15133c0.08199,0.165 0.0143,0.36465 -0.15094,0.44629zM29.33329,31.99996v1c0,0.18398 -0.14898,0.33332 -0.33332,0.33332c-0.18434,0 -0.33332,-0.14934 -0.33332,-0.33332v-1c0,-0.18398 0.14898,-0.33332 0.33332,-0.33332c0.18434,0 0.33332,0.14934 0.33332,0.33332zM33.99996,20.00002v0.33332c0,0.135 -0.08133,0.25699 -0.20633,0.30832l-4.46034,1.83566v4.13476c0.40867,-0.43 0.60902,-0.86566 0.66668,-1.00699v-2.27168c0,-0.18398 0.14898,-0.33332 0.33332,-0.33332c0.18434,0 0.33332,0.14934 0.33332,0.33332v2.33332c0,0.03699 -0.00633,0.07398 -0.01832,0.10898c-0.015,0.04266 -0.35801,1.00465 -1.315,1.72699v1.89199c0.38703,0.13836 0.66668,0.50469 0.66668,0.93867c0,0.55133 -0.44867,1 -1,1c-0.55133,0 -1,-0.44867 -1,-1c0,-0.43402 0.27969,-0.80035 0.66668,-0.93867v-8.21202l-3.80398,-1.42035c-0.23133,0.14664 -0.52898,0.23766 -0.86265,0.23766c-0.74765,0 -1.33332,-0.43934 -1.33332,-1c0,-0.56066 0.58566,-1 1.33332,-1c0.74765,0 1.33332,0.43934 1.33332,1c0,0.07434 -0.01168,0.14566 -0.03102,0.215l3.66566,1.36867l3.82698,-1.58367l-8.79498,-3.63933l-8.79498,3.63933l8.79498,3.63933l3.36804,-1.39336c0.17,-0.07 0.365,0.01035 0.43535,0.18035c0.07035,0.17035 -0.01031,0.36535 -0.18066,0.43535l-3.49534,1.44633c-0.04066,0.01703 -0.08398,0.02535 -0.12734,0.02535c-0.04336,0 -0.08668,-0.00836 -0.12734,-0.02535l-9.66666,-3.99999c-0.12469,-0.05133 -0.20602,-0.17301 -0.20602,-0.30801c0,-0.135 0.08133,-0.25633 0.20602,-0.30801l9.66666,-3.99999c0.08164,-0.03367 0.17297,-0.03367 0.25465,0l9.66701,3.99995c0.12434,0.05168 0.20566,0.17301 0.20566,0.30801c0,0.135 -0.08137,0.25668 -0.20602,0.30801l-4.46066,1.84601v0.60234l3.99999,-1.64632v-0.11c0,-0.18398 0.14898,-0.33332 0.33332,-0.33332c0.18434,0 0.33332,0.14934 0.33332,0.33336zM24.66666,18.99998c0,-0.13598 -0.25965,-0.33332 -0.66668,-0.33332c-0.40703,0 -0.66668,0.1973 -0.66668,0.33332c0,0.13598 0.25969,0.33332 0.66668,0.33332c0.40699,0 0.66668,-0.1973 0.66668,-0.33332zM29.33329,30.33332c0,-0.18367 -0.14934,-0.33332 -0.33332,-0.33332c-0.18398,0 -0.33332,0.14965 -0.33332,0.33332c0,0.18367 0.14934,0.33332 0.33332,0.33332c0.18398,0 0.33332,-0.14969 0.33332,-0.33332zM30.65665,32.91894c0.04469,0.17898 -0.06398,0.35969 -0.24266,0.40434c-0.02703,0.00699 -0.05434,0.01 -0.08102,0.01c-0.14934,0 -0.285,-0.10102 -0.32301,-0.25234l-0.33332,-1.33332c-0.04469,-0.17867 0.06398,-0.35969 0.24266,-0.40434c0.17797,-0.045 0.35934,0.06402 0.40398,0.24234z" fill="none" stroke-width="0"></path><path d="M30.42002,35.50497l-0.49497,1.97994c-0.05644,0.22472 -0.2579,0.37472 -0.47966,0.37472c-0.03962,0 -0.08022,-0.00447 -0.12031,-0.01485c-0.26532,-0.06636 -0.42716,-0.33464 -0.36034,-0.60043l0.49497,-1.97994c0.06584,-0.26486 0.33458,-0.42722 0.5999,-0.35987c0.26532,0.06636 0.4267,0.3351 0.36039,0.60043zM23.81093,24.95231l-14.3547,-5.93987c-0.18516,-0.07622 -0.30593,-0.25691 -0.30593,-0.45738v-0.49497c0,-0.27321 0.22182,-0.49497 0.49503,-0.49497c0.27321,0 0.49497,0.22176 0.49497,0.49497v0.16433l13.85967,5.73493l5.25487,-2.17495c0.25192,-0.10348 0.54248,0.01531 0.64695,0.26828c0.10441,0.25244 -0.01537,0.54201 -0.26782,0.64648l-5.4449,2.25321c-0.06038,0.02523 -0.12477,0.03759 -0.1891,0.03759c-0.06433,0 -0.12872,-0.01241 -0.18904,-0.03765zM29.66425,30.72384c-1.10381,0.54549 -2.98281,1.19592 -5.66416,1.19592c-7.67183,0 -9.77851,-5.04639 -9.86465,-5.26073c-0.02326,-0.05888 -0.03515,-0.12123 -0.03515,-0.18411v-3.4649c0,-0.27321 0.22176,-0.49497 0.49497,-0.49497c0.27321,0 0.49497,0.22176 0.49497,0.49497v3.36194c0.28516,0.61974 2.26858,4.34307 8.41483,4.53907v-4.43611c0,-0.27321 0.22176,-0.49497 0.49497,-0.49497c0.27321,0 0.49497,0.22176 0.49497,0.49497v4.44057c2.22049,-0.07378 3.79061,-0.61429 4.73061,-1.0791c0.24601,-0.12129 0.54201,-0.0203 0.66278,0.22472c0.12176,0.24502 0.02123,0.54149 -0.22414,0.66272zM31.91978,35.87969v1.48497c0,0.27321 -0.22124,0.49497 -0.49497,0.49497c-0.27373,0 -0.49497,-0.22176 -0.49497,-0.49497v-1.48497c0,-0.27321 0.22124,-0.49497 0.49497,-0.49497c0.27373,0 0.49497,0.22176 0.49497,0.49497zM38.84964,18.06015v0.49497c0,0.20047 -0.12077,0.38162 -0.30639,0.45785l-6.62348,2.7259v6.13999c0.60686,-0.63854 0.90438,-1.28548 0.99,-1.49535v-3.37337c0,-0.27321 0.22124,-0.49497 0.49497,-0.49497c0.27373,0 0.49497,0.22176 0.49497,0.49497v3.4649c0,0.05493 -0.0094,0.10986 -0.02721,0.16184c-0.02227,0.06334 -0.53163,1.49187 -1.95273,2.56453v2.80955c0.57473,0.20546 0.99,0.74944 0.99,1.3939c0,0.8187 -0.66626,1.48497 -1.48497,1.48497c-0.8187,0 -1.48497,-0.66626 -1.48497,-1.48497c0,-0.64451 0.41533,-1.1885 0.99,-1.3939v-12.1946l-5.64879,-2.10918c-0.34351,0.21776 -0.78552,0.35291 -1.28102,0.35291c-1.11025,0 -1.97994,-0.6524 -1.97994,-1.48497c0,-0.83257 0.86969,-1.48497 1.97994,-1.48497c1.11025,0 1.97994,0.6524 1.97994,1.48497c0,0.11039 -0.01734,0.21631 -0.04606,0.31927l5.44339,2.03243l5.68296,-2.3517l-13.06029,-5.40429l-13.06029,5.40429l13.06029,5.40429l5.00144,-2.06909c0.25244,-0.10395 0.54201,0.01537 0.64648,0.26782c0.10447,0.25297 -0.01531,0.54254 -0.26828,0.64648l-5.19048,2.14775c-0.06038,0.02529 -0.12471,0.03765 -0.1891,0.03765c-0.06439,0 -0.12872,-0.01241 -0.1891,-0.03765l-14.3547,-5.93987c-0.18516,-0.07622 -0.30593,-0.25691 -0.30593,-0.45738c0,-0.20047 0.12077,-0.38064 0.30593,-0.45738l14.3547,-5.93987c0.12123,-0.05 0.25685,-0.05 0.37814,0l14.35522,5.93981c0.18463,0.07674 0.3054,0.25691 0.3054,0.45738c0,0.20047 -0.12083,0.38116 -0.30593,0.45738l-6.62394,2.74127v0.89446l5.93987,-2.44474v-0.16335c0,-0.27321 0.22124,-0.49497 0.49497,-0.49497c0.27373,0 0.49497,0.22176 0.49497,0.49503zM24.98997,16.57512c0,-0.20192 -0.38557,-0.49497 -0.99,-0.49497c-0.60443,0 -0.99,0.29299 -0.99,0.49497c0,0.20192 0.38563,0.49497 0.99,0.49497c0.60437,0 0.99,-0.29299 0.99,-0.49497zM31.91978,33.40479c0,-0.27275 -0.22176,-0.49497 -0.49497,-0.49497c-0.27321,0 -0.49497,0.22222 -0.49497,0.49497c0,0.27275 0.22176,0.49497 0.49497,0.49497c0.27321,0 0.49497,-0.22228 0.49497,-0.49497zM33.88492,37.24436c0.06636,0.26579 -0.09501,0.53412 -0.36034,0.60043c-0.04014,0.01038 -0.08069,0.01485 -0.12031,0.01485c-0.22176,0 -0.42322,-0.15 -0.47966,-0.37472l-0.49497,-1.97994c-0.06636,-0.26532 0.09501,-0.53412 0.36034,-0.60043c0.26428,-0.06682 0.5336,0.09507 0.5999,0.35987z" fill="#ffffff" stroke-width="0"></path><path d="M2,24c0,-12.15026 9.84974,-22 22,-22c12.15026,0 22,9.84974 22,22c0,12.15026 -9.84974,22 -22,22c-12.15026,0 -22,-9.84974 -22,-22z" id="base 1 5 1" fill="none" stroke-width="1"></path><path d="M2,24c0,-12.15026 9.84974,-22 22,-22c12.15026,0 22,9.84974 22,22c0,12.15026 -9.84974,22 -22,22c-12.15026,0 -22,-9.84974 -22,-22z" id="base 1 1 1" fill="none" stroke-width="1"></path><g fill="#000000" stroke-width="1" font-family="Roboto, sans-serif" font-weight="400" font-size="14" text-anchor="start"></g><rect x="2" y="2" width="44" height="22" fill="none" stroke-width="1"></rect><path d="M2,24v-22h44v22z" fill="none" stroke-width="1"></path><path d="M2,24v-22h44v22z" fill="none" stroke-width="1"></path><path d="M2,24v-22h44v22z" fill="none" stroke-width="1"></path><path d="M2,24v-22h44v22z" fill="none" stroke-width="1"></path><g id="Layer_1 1 1" fill="#000000" stroke-width="1" font-family="Roboto, sans-serif" font-weight="400" font-size="14" text-anchor="start"><g><g><g></g></g></g><g></g><g></g><g></g><g></g><g></g><g></g><g></g><g></g><g></g><g></g><g></g><g></g><g></g><g></g><g></g></g><path d="M16,36v-12h30v12z" id="banner 1" fill="#404041" stroke-width="1" filter="url(#dropshadow-banner)"></path><text x="31" y="33" fill="#ffffff" stroke-width="1" font-family="sans-serif" font-weight="bold" font-size="8" text-anchor="middle">FREE</text><rect x="2" y="2" width="44" height="22" fill="none" stroke-width="1"></rect><path d="M2,24v-22h44v22z" fill="none" stroke-width="1"></path><path d="M2,24v-22h44v22z" fill="none" stroke-width="1"></path><path d="M2,24v-22h44v22z" fill="none" stroke-width="1"></path><path d="M2,24v-22h44v22z" fill="none" stroke-width="1"></path></g></svg>